<svg width="292" height="68" viewBox="0 0 292 68" fill="none" xmlns="http://www.w3.org/2000/svg">
<rect width="292" height="68" rx="8" fill="url(#paint0_linear_820_263)"/>
<path d="M29.9922 45H38.8398C43.3516 45 46.1055 42.7148 46.1055 39.0234V38.9941C46.1055 36.2109 44.084 34.1309 41.0957 33.8672V33.7939C43.3662 33.4863 45.0947 31.4502 45.0947 29.1797V29.1504C45.0947 25.9424 42.6045 23.8623 38.752 23.8623H29.9922V45ZM37.8145 26.8066C40.0557 26.8066 41.3594 27.832 41.3594 29.6631V29.6924C41.3594 31.6846 39.8799 32.7979 37.1699 32.7979H33.7568V26.8066H37.8145ZM37.7705 35.5371C40.7148 35.5371 42.2383 36.6504 42.2383 38.7744V38.8037C42.2383 40.9277 40.7441 42.0557 37.9756 42.0557H33.7568V35.5371H37.7705ZM55.5391 45.3076C59.4648 45.3076 62.1016 42.8467 62.3799 39.6094V39.5068H58.9375L58.9082 39.6387C58.5713 41.2646 57.4141 42.3633 55.5684 42.3633C53.2539 42.3633 51.7598 40.4883 51.7598 37.251V37.2363C51.7598 34.0576 53.2393 32.1094 55.5391 32.1094C57.4873 32.1094 58.6006 33.3252 58.9082 34.834L58.9229 34.9658H62.3652L62.3506 34.8486C62.1309 31.7432 59.5967 29.1504 55.5098 29.1504C50.9688 29.1504 48.0391 32.2559 48.0391 37.207V37.2217C48.0391 42.2021 50.9248 45.3076 55.5391 45.3076ZM76.6182 29.4727H63.4492V32.2998H68.21V45H71.8574V32.2998H76.6182V29.4727ZM80.9541 50.1562C84.1768 50.1562 86.0078 48.9404 87.1797 45.5273L92.7754 29.4727H88.9229L85.29 41.8945H85.1729L81.54 29.4727H77.5703L83.1514 45.0146L82.917 45.6445C82.4482 46.9482 81.6865 47.3438 80.2803 47.3438C79.7676 47.3438 79.3428 47.2705 79.0791 47.2119V49.9951C79.5039 50.0684 80.2363 50.1562 80.9541 50.1562ZM94.7236 45H98.3711V32.2852H104.758V45H108.42V29.4727H94.7236V45ZM111.687 45H115.261L121.955 34.5703H122.102V45H125.705V29.4727H122.131L115.437 39.8291H115.29V29.4727H111.687V45ZM141.13 29.4727H127.961V32.2998H132.722V45H136.369V32.2998H141.13V29.4727ZM143.386 45H150.021C153.64 45 155.969 42.8906 155.969 39.5801V39.5508C155.969 36.2402 153.64 34.1309 150.021 34.1309H147.033V29.4727H143.386V45ZM149.509 36.9434C151.179 36.9434 152.248 37.9688 152.248 39.5508V39.5801C152.248 41.1475 151.193 42.1875 149.509 42.1875H147.033V36.9434H149.509ZM164.509 45H171.994C175.437 45 177.575 43.2568 177.575 40.5322V40.5029C177.575 38.584 176.198 37.1777 174.162 36.9287V36.8115C175.7 36.5479 176.887 35.083 176.887 33.457V33.4277C176.887 30.9668 175.012 29.4727 171.877 29.4727H164.509V45ZM168.112 35.8008V31.9775H171.013C172.478 31.9775 173.298 32.6367 173.298 33.8672V33.8965C173.298 35.1709 172.434 35.8008 170.734 35.8008H168.112ZM168.112 42.4805V38.2471H170.852C172.814 38.2471 173.825 38.9062 173.825 40.3125V40.3418C173.825 41.7627 172.873 42.4805 171.145 42.4805H168.112ZM193.117 45.3076C197.043 45.3076 199.68 42.8467 199.958 39.6094V39.5068H196.516L196.486 39.6387C196.149 41.2646 194.992 42.3633 193.146 42.3633C190.832 42.3633 189.338 40.4883 189.338 37.251V37.2363C189.338 34.0576 190.817 32.1094 193.117 32.1094C195.065 32.1094 196.179 33.3252 196.486 34.834L196.501 34.9658H199.943L199.929 34.8486C199.709 31.7432 197.175 29.1504 193.088 29.1504C188.547 29.1504 185.617 32.2559 185.617 37.207V37.2217C185.617 42.2021 188.503 45.3076 193.117 45.3076ZM209.201 45.3076C213.259 45.3076 215.544 42.9053 216.042 40.5176L216.071 40.3564H212.658L212.629 40.459C212.277 41.499 211.105 42.4658 209.274 42.4658C206.901 42.4658 205.407 40.8545 205.363 38.1299H216.232V36.958C216.232 32.2705 213.479 29.1504 209.025 29.1504C204.587 29.1504 201.73 32.373 201.73 37.2656V37.2803C201.73 42.2168 204.543 45.3076 209.201 45.3076ZM209.069 32.0068C211.003 32.0068 212.409 33.2373 212.673 35.6982H205.407C205.686 33.3105 207.15 32.0068 209.069 32.0068ZM223.015 38.2471L228.347 45H232.785L226.223 36.7236L232.478 29.4727H228.273L223.015 35.7422H222.473V29.4727H218.825V45H222.473V38.2471H223.015ZM246.54 29.4727H233.371V32.2998H238.132V45H241.779V32.2998H246.54V29.4727ZM250.876 50.1562C254.099 50.1562 255.93 48.9404 257.102 45.5273L262.697 29.4727H258.845L255.212 41.8945H255.095L251.462 29.4727H247.492L253.073 45.0146L252.839 45.6445C252.37 46.9482 251.608 47.3438 250.202 47.3438C249.689 47.3438 249.265 47.2705 249.001 47.2119V49.9951C249.426 50.0684 250.158 50.1562 250.876 50.1562Z" fill="white"/>
<defs>
<linearGradient id="paint0_linear_820_263" x1="47" y1="4.49998" x2="269.5" y2="68" gradientUnits="userSpaceOnUse">
<stop stop-color="#5869FF"/>
<stop offset="1" stop-color="#B258FF"/>
</linearGradient>
</defs>
</svg>
