<svg width="24" height="24" viewBox="0 0 24 24" fill="none" xmlns="http://www.w3.org/2000/svg">
<path d="M16.0001 22.0268V19.1568C16.0376 18.68 15.9732 18.2006 15.8111 17.7506C15.649 17.3006 15.393 16.8902 15.0601 16.5468C18.2001 16.1968 21.5001 15.0068 21.5001 9.54679C21.4998 8.15062 20.9628 6.80799 20.0001 5.79679C20.4559 4.5753 20.4237 3.22514 19.9101 2.02679C19.9101 2.02679 18.7301 1.67679 16.0001 3.50679C13.7081 2.88561 11.2921 2.88561 9.00008 3.50679C6.27008 1.67679 5.09008 2.02679 5.09008 2.02679C4.57645 3.22514 4.54422 4.5753 5.00008 5.79679C4.0302 6.81549 3.4926 8.17026 3.50008 9.57679C3.50008 14.9968 6.80007 16.1868 9.94007 16.5768C9.61107 16.9168 9.35734 17.3222 9.19538 17.7667C9.03343 18.2112 8.96688 18.6849 9.00008 19.1568V22.0268" stroke="url(#paint0_linear_818_262)" stroke-width="1.5" stroke-linecap="round" stroke-linejoin="round"/>
<path d="M9 20.0267C6 20.9999 3.5 20.0267 2 17.0267" stroke="url(#paint1_linear_818_262)" stroke-width="1.5" stroke-linecap="round" stroke-linejoin="round"/>
<defs>
<linearGradient id="paint0_linear_818_262" x1="12.5" y1="2" x2="12.5" y2="22.0268" gradientUnits="userSpaceOnUse">
<stop stop-color="#5175F3"/>
<stop offset="1" stop-color="#D150FB"/>
</linearGradient>
<linearGradient id="paint1_linear_818_262" x1="5.5" y1="17.0267" x2="5.5" y2="20.3904" gradientUnits="userSpaceOnUse">
<stop stop-color="#5175F3"/>
<stop offset="1" stop-color="#D150FB"/>
</linearGradient>
</defs>
</svg>
